<svg xmlns="http://www.w3.org/2000/svg" width="880" height="220" viewBox="0 0 880 220">
  <defs>
    <linearGradient id="bg" x1="0" y1="0" x2="1" y2="1">
      <stop offset="0" stop-color="#0f172a"/>
      <stop offset="1" stop-color="#1e293b"/>
    </linearGradient>
  </defs>
  <rect width="880" height="220" rx="18" fill="url(#bg)"/>
  <g font-family="Inter, Segoe UI, Helvetica, Arial, sans-serif">
    <text x="60" y="92" font-size="40" font-weight="700" fill="#f8fafc">Hybrid RAG Search</text>
    <text x="60" y="130" font-size="20" fill="#94a3b8">Ask a question. Get the right SOP. Nothing else.</text>
    <g font-size="14" font-weight="600">
      <rect x="60" y="156" width="96" height="30" rx="15" fill="#2563eb"/>
      <text x="108" y="176" fill="#ffffff" text-anchor="middle">vector</text>
      <rect x="166" y="156" width="96" height="30" rx="15" fill="#0891b2"/>
      <text x="214" y="176" fill="#ffffff" text-anchor="middle">BM25</text>
      <rect x="272" y="156" width="110" height="30" rx="15" fill="#7c3aed"/>
      <text x="327" y="176" fill="#ffffff" text-anchor="middle">metadata</text>
      <rect x="392" y="156" width="96" height="30" rx="15" fill="#db2777"/>
      <text x="440" y="176" fill="#ffffff" text-anchor="middle">rerank</text>
    </g>
  </g>
  <g fill="none" stroke="#38bdf8" stroke-width="3" stroke-linecap="round">
    <circle cx="730" cy="100" r="46"/>
    <line x1="764" y1="134" x2="806" y2="176"/>
  </g>
  <g fill="#38bdf8">
    <rect x="708" y="80" width="44" height="6" rx="3"/>
    <rect x="708" y="96" width="34" height="6" rx="3" opacity="0.7"/>
    <rect x="708" y="112" width="40" height="6" rx="3" opacity="0.5"/>
  </g>
</svg>
